<?xml version="1.0" encoding="UTF-8"?>
<svg xmlns="http://www.w3.org/2000/svg" viewBox="0 0 427.08 516.06">
  <defs>
    <style>
      .cls-1 {
        mix-blend-mode: multiply;
      }

      .cls-2, .cls-3, .cls-4, .cls-5, .cls-6 {
        stroke-width: 0px;
      }

      .cls-7 {
        isolation: isolate;
      }

      .cls-3 {
        fill: #ee7277;
      }

      .cls-4 {
        fill: #fff;
      }

      .cls-5 {
        fill: #ffd73e;
      }

      .cls-6 {
        fill: #ee4e36;
      }
    </style>
  </defs>
  <g class="cls-7">
    <g id="Layer_2" data-name="Layer 2">
      <g id="katman_1" data-name="katman 1">
        <g id="layer1" class="cls-1">
          <g id="g2864">
            <path id="path2423" class="cls-2" d="m297.17.01c-.14-.02-.28-.02-.42,0-.16.02-.32.07-.47.14-.42.08-.81.27-1.15.59-1.32,1.19-2.02,3.33-2.69,8.9,0,.05-.01.1-.02.15-.19,1.61-.38,3.46-.58,5.7-.18,2.02-.27,9.13-.28,17.88-.05,5.01-.03,10.41.05,16.06.08,11.18.25,22.1.49,27.48.2,4.47.43,8.91.69,13.27.08,1.59.16,3.06.25,4.36.04.62.09,1.27.14,1.89,1.57,24.15,3.83,44.77,5.75,51.1,0,.03.01.06.02.09.02.14.04.3.06.4-.05.36-.56.32-2.01,0-10.37-2.29-33.51-2.26-53.66.06-14.75,1.7-36.79,7.14-44.29,10.94l-.67.34c-.67.26-1.26.47-1.68.58-.52.1-.91.11-1.23.04l-1.49-.99c-3.63-2.4-10.85-6.32-18.48-10.16-.85-.44-1.7-.88-2.44-1.25-2.62-1.31-5.34-2.61-8.16-3.88-2.55-1.18-5.01-2.3-7.16-3.21-32.71-13.82-72.54-23.84-105.64-26.57-3.72-.31-8.29-.46-12.78-.48-1.16-.03-2.24-.05-3.18-.05-1.69,0-3.29.05-4.83.13-1.03.03-2.01.07-2.92.13-3.8.19-6.65.51-7.48.93-.56.28-1.02.56-1.39.83-.88.51-1.31,1.12-1.31,1.84,0,.3.11.69.31,1.14.12.39.3.82.55,1.3.57,1.11,2.5,3.35,4.97,5.92,1.96,2.09,4.27,4.34,6.72,6.51,2.23,2.03,4.41,3.9,6.14,5.18,5.58,4.13,17.02,11.93,17.51,11.93.2,0,1.15.57,2.13,1.27,2.12,1.51,6.76,4.2,12.6,7.39,1.49.9,4.91,2.71,9.14,4.89,12.57,6.6,27.31,13.89,36.02,17.64,2.78,1.19,5.72,2.42,8.7,3.65,1.69.73,3.9,1.63,6.55,2.67,12.32,4.97,24.34,9.48,29.32,10.93,1.86.54,2.72.89,3,1.29-.04.34-.12.86-.26,1.54-2.4,6.99-5.25,25.47-5.28,34.68,0,.51-.02.99-.04,1.44-.03.26-.05.42-.07.64-.16.99-.35,1.57-.58,1.78-.36-.1-1.02-.34-1.88-.68-1.09-.46-2.5-1.09-3.99-1.78-3.04-1.41-6.18-2.77-6.98-3.02-.8-.25-2.78-1.06-4.4-1.79-3.75-1.7-10.31-4.16-19.98-7.49-26.62-9.18-57.33-16.33-83.76-19.5-3.06-.37-7.85-.76-12.84-1.1-3.87-.31-7.69-.55-11.44-.7-1.77-.07-3.16-.11-4.38-.13-2.77-.08-4.72-.08-5.07.05-.41.16-.68.48-.8,1.01-.1.25-.14.54-.14.89,0,0,0,.02,0,.03,0,0,0,.02,0,.03,0,.25.08.69.21,1.22.27,1.61.95,3.93,2.07,7.25,4.62,13.67,11.94,31.42,19.6,48.15h0c.29.71,1.06,2.38,2.07,4.49,6.43,13.78,12.97,26.51,18.25,35.2,1.89,3.12,2.88,4.95,3.94,6.01.23.32.41.53.51.59.03.02.14.03.3.05,1.6.97,3.8.67,9.19.43.85-.04,2.15-.06,3.72-.07,3.09.04,6.43.08,10.06.1,3.24.02,6.37.06,9.43.1,12.21.23,25.27.63,29.69.98,1.29.1,4.93.38,8.08.61.75.05,1.45.12,2.11.18,1.89.24,3.11.5,3.48.77,0,.22-.07.62-.17,1.13-.16.58-.37,1.29-.6,2.05-4.99,16.19-16.13,55.14-16.13,56.38,0,.11.02.22.05.33-.02.08-.05.22-.05.25,0,.15.23.36.68.63,1.16.97,4.04,2.15,10.49,4.43,10.7,3.8,24.22,8.84,27.44,10.22.11.06.23.12.33.18.72.42,1.23.91,1.74,1.83.18.36.34.74.46,1.12.37,1.21,1.22,3.6,1.88,5.3.07.19.13.36.2.53.4,1.35.61,2.25.65,2.95-.04.42-.15.83-.35,1.31-.62,1.5-1.09,1.75-4.04,2.11-1.84.23-3.79.74-5.69,1.43-1.22.4-2.39.91-3.53,1.53-3.16,1.61-5.81,3.63-6.96,5.57-.84.72-1.53,1.23-1.9,1.35-.48-.52-1.23-1.5-2.01-2.66-.93-1.38-3.19-4.03-5.43-6.44-.3-.32-.59-.64-.89-.94-.17-.18-.34-.37-.51-.54-4.1-4.2-5-4.86-6.73-4.88,0,0-.02,0-.03,0,0,0-.02,0-.03,0,0,0-.02,0-.03,0-.02,0-.05,0-.07,0,0,0-.02,0-.03,0-.04,0-.08,0-.12,0-2.38.08-3.71,1.5-4.19,4.46-.17,1.06-.65,2.25-1.13,2.88-.17.13-.33.31-.49.53-1.09,1.21-1.73,3.68-1.95,7.07-.07.78-.12,1.58-.12,2.36,0,1.06.05,2.22.13,3.42.36,7.56,2.04,17.48,4.93,27.76.82,2.91,1.85,6.65,2.31,8.32,1.32,4.85,3.69,11.39,6.39,17.92.76,2.12,2.23,5.46,3.98,9.1,2.13,4.59,4.25,8.73,6.05,11.69,5.43,8.89,9.83,13.73,14.23,15.68,2.99,1.32,4.87,1.1,6.76-.79l1.24-1.24,3.89,1.27c.09.03.21.06.31.09,1.39.55,2.86.96,4.7,1.26.89.2,1.74.39,2.41.5,4.5.74,24.89.73,34.09-.02,3.88-.32,10.27-.75,14.21-.96l7.16-.39-.33,2.45c-.18,1.37-.03,2.45.41,3.23.5.96,1.43,1.46,2.77,1.47,1.3.05,2.96-.33,4.95-1.18l2.93-1.26,1.92,2.09c.34.5.71.88,1.11,1.14.63.62,1.15,1.05,1.3,1.05.73,0,2.95-1.3,4.26-2.5l.67-.61c.27-.18.48-.28.65-.31.11.02.23.05.34.1l1.49,1.49c2.16,2.16,2.87,2.07,7.31-.92l2.92-1.96.39.43,1.59,1.91c2.9,3.49,4.7,3.29,9.04-1l2.59-2.56c.44-.34.82-.57,1.13-.7l2.47.7c1.41.4,2.46.67,3.35.84l2.05.6,1.42-.73c.63-.21,1.3-.53,2.15-.96l3.1-1.57,3.3,3.22c.08.08.16.15.24.23.7.71,1.37,1.3,2.03,1.78,3.56,2.81,5.65,2.45,6.7-1.05.11-.36.2-.63.3-.93.24-.68.47-1.19.61-1.34.18.06,1.93,1.06,4.08,2.31,2.21,1.29,4.4,2.35,4.87,2.35,1.13,0,2.99-1.74,2.99-2.8,0,0,0,0,0-.01.25-.29.52-.47.76-.49.09.02.16.04.26.08.57.24,2.43.57,4.14.73,3.04.29,3.12.25,3.8-1.55.24-.64.43-1.05.7-1.33.02-.02.05-.03.08-.05.33-.18.81-.32,1.48-.42.09,0,.16-.02.25-.02,0,0,0,0,0,0,.22,0,.47-.01.75-.01,0,0,.01,0,.02,0,.11,0,.2,0,.32,0,.2,0,.38-.02.57-.03.09,0,.19,0,.27-.01,2.69-.19,4.22-1.3,4.22-3.14,0-.76.06-1.05,4.05-1.18l4.93.13c5.24.14,11.73-.01,18.58-.39,8.87-.25,15.24-.88,26.51-2.41l6.8-.92,1.12-.14.12.1,1.36,1.5c1.43,1.57,3,2.51,4.72,2.85.02,0,.05,0,.07.01,1.62.3,3.38.06,5.27-.74,2.07-.87,4.7-3.29,7.42-6.64,1.67-2,3.3-4.31,4.89-6.89,1.98-3.15,3.86-6.62,5.47-10.17,8.36-18.4,13.77-42.05,14.57-58.8.24-2.94.34-5.17.19-5.66-.03-.1-.07-.38-.12-.73-.22-6.67-1.44-11.58-3.82-13.54-.64-.53-1.57-1.77-2.23-2.93-.04-.57-.43-1.19-.98-1.73-.52-.76-1.02-1.05-1.91-1.2-.25-.08-.49-.14-.74-.18-.04,0-.07,0-.11-.01-.06,0-.12-.02-.17-.02,0,0-.02,0-.03,0-.02,0-.04,0-.05,0-.24,0-.49.04-.74.1-1.03.1-1.7.6-2.96,1.93-.37.39-.75.74-1.12,1.03-.31.23-.62.44-.9.6-.31.16-.56.23-.71.18-.64-.24-1.5.22-2.52,1.27-.68.64-1.42,1.61-2.25,2.94-1.03,1.58-2.14,3.55-3.28,5.87-1.56,3.19-2.74,5.53-3.2,6.4-.17.29-.34.56-.43.68-.32-.15-1.94-1.64-3.83-3.52-6.66-6.62-13.47-11.26-18.15-12.39-1.06-.25-1.91-1.24-2.97-3.46-.82-1.71-3.5-7.08-5.95-11.93-8.32-16.44-13.12-31.34-14.29-44.38-.19-2.1-.48-4.95-.65-6.32-.07-.54-.1-.95-.09-1.34.09-.56.24-1.03.44-1.49.55-.93,1.7-2.15,3.94-4.51,2.53-2.66,5.52-6.03,6.63-7.49,1.12-1.45,2.18-2.78,2.36-2.94,1.11-.98,3.88-5.4,6.59-10.21,1.38-2.31,2.59-4.58,3.62-6.77,1.15-2.27,2.08-4.28,2.57-5.66,1.45-4.01,2.56-11.12,2.44-15.67-.23-8.55-1.56-14.15-7-29.3-5.28-14.71-6.78-20.05-10.06-35.56-2.45-11.59-4.22-17.44-8.02-26.45l-2.85-6.75c-.09-.85-.15-1.94-.18-3.34l-.02-.83c-.02-1.18-.04-2.47-.04-4.07,0-2.9-.06-6.11-.17-9.42-.07-3.1-.16-5.96-.3-8.71-.86-21.51-3.4-38.64-8.92-61.31-7.97-32.7-23.26-67.03-38.19-85.71-2.98-3.72-5.31-6.01-7.15-6.97-.54-.37-.97-.57-1.35-.61h0Zm-132.7,321.22l4.75,9.5-8.91,36.22-19-9.5,23.16-36.22Z"/>
            <path id="path2700" class="cls-5" d="m231.6,515.93c-.13.04-.25.06-.34.06,0,0,0,0,0,0,.09,0,.2-.02.34-.06h0Z"/>
            <path id="path2698" class="cls-5" d="m256.49,515.47c-.39.22-.76.38-1.11.48.35-.1.72-.26,1.11-.48Z"/>
            <path id="path2696" class="cls-5" d="m242.75,515.22c-.49.23-.91.37-1.28.42.38-.05.79-.19,1.28-.42Z"/>
            <path id="path2694" class="cls-5" d="m239.77,515.14c.22.16.44.29.66.37-.22-.09-.44-.21-.66-.37Z"/>
            <path id="path2692" class="cls-5" d="m251.92,514.76c.34.32.66.58.98.79-.32-.2-.65-.46-.98-.79Z"/>
            <path id="path2690" class="cls-5" d="m300.04,514.76c.11.03.19.05.25.05.07,0,.14,0,.22-.02-.08.01-.15.02-.22.02-.06,0-.14-.02-.25-.05h0Z"/>
            <path id="path2688" class="cls-5" d="m301.74,514.2c-.33.24-.67.43-.99.53.32-.1.66-.29.99-.53Z"/>
            <path id="path2686" class="cls-5" d="m220.1,514.1c-.37.04-.72.06-1.04.04-.17,0-.33-.01-.48-.03.16.02.32.03.48.03.33.01.67,0,1.04-.04h0Z"/>
            <path id="path2684" class="cls-5" d="m221.91,513.72c-.43.13-.85.22-1.24.29.39-.07.8-.17,1.24-.29Z"/>
            <path id="path2682" class="cls-5" d="m223.28,513.26c-.48.18-.93.34-1.36.46.43-.13.89-.28,1.36-.46Z"/>
            <path id="path2680" class="cls-5" d="m236.55,512.67c-.11.05-.23.12-.36.21l-.67.61c-.66.6-1.54,1.22-2.35,1.7.81-.48,1.69-1.1,2.35-1.7l.67-.61c.13-.09.25-.16.36-.21Z"/>
            <path id="path2678" class="cls-5" d="m236.84,512.57c-.09.02-.18.05-.29.1.11-.05.2-.08.29-.1.11.02.23.05.34.1h0c-.12-.05-.23-.09-.34-.1h0Z"/>
            <path id="path2676" class="cls-5" d="m311.05,512.39c-.21.05-.47.07-.81.06.33,0,.6-.01.81-.06Z"/>
            <path id="path2674" class="cls-5" d="m311.41,512.24c-.1.07-.22.12-.37.15.14-.03.26-.08.37-.15Z"/>
            <path id="path2672" class="cls-5" d="m311.69,511.98c-.04.05-.08.1-.13.14.05-.04.09-.09.13-.14Z"/>
            <path id="path2670" class="cls-5" d="m303.48,511.8c-.06.06-.13.12-.19.2,0,0,0,0,0,.01,0,.07,0,.14-.02.21.01-.07.02-.14.02-.21,0,0,0,0,0-.01.06-.07.13-.14.19-.2h0Z"/>
            <path id="path2668" class="cls-5" d="m304.96,511.78c.81.19,2.12.4,3.36.52-1.24-.12-2.55-.33-3.36-.52Z"/>
            <path id="path2666" class="cls-5" d="m226.94,511.7l-2.93,1.26c-.25.11-.49.21-.73.3.24-.09.48-.19.73-.3l2.93-1.26h0Z"/>
            <path id="path2664" class="cls-5" d="m248.9,511.28l-2.92,1.96c-.56.37-1.05.7-1.5.99.45-.28.95-.61,1.5-.99l2.92-1.96h0Z"/>
            <path id="path2662" class="cls-5" d="m290.23,513.04c-.22.58-.48,1.06-.78,1.42.3-.36.56-.83.78-1.42Z"/>
            <path id="path2660" class="cls-5" d="m291.08,510.62c-.1.23-.22.53-.34.87-.1.31-.19.57-.3.93-.07.22-.14.43-.21.62.07-.19.14-.4.21-.62.11-.36.2-.63.3-.93.12-.34.24-.64.34-.87Z"/>
            <path id="path2658" class="cls-5" d="m291.35,510.15s-.07.1-.12.17c.04-.08.09-.14.12-.17,0,0,0,0,0,0h0Z"/>
            <path id="path2656" class="cls-5" d="m312.59,509.97c-.11.22-.22.48-.34.8-.08.22-.16.42-.23.59.07-.17.15-.37.23-.59.12-.32.23-.58.34-.8Z"/>
            <path id="path2654" class="cls-5" d="m312.96,509.44c-.14.14-.25.31-.36.53.11-.22.23-.39.36-.53,0,0,0,0,0,0h0Z"/>
            <path id="path2652" class="cls-5" d="m314.52,508.97c-.51.08-.9.17-1.21.29.3-.12.7-.21,1.21-.29Z"/>
            <path id="path2650" class="cls-5" d="m315.51,508.94c-.27,0-.51,0-.73.01,0,0,0,0,0,0-.09,0-.17.01-.25.02.09,0,.16-.02.25-.02,0,0,0,0,0,0,.22,0,.46-.01.73-.01h0Z"/>
            <path id="path2648" class="cls-5" d="m317.66,508.78c-.3.05-.62.09-.96.11-.09,0-.18,0-.27.01.09,0,.19,0,.27-.01.34-.02.65-.06.95-.11h0Z"/>
            <path id="path2646" class="cls-5" d="m259.14,513.39c-.5.47-.97.88-1.41,1.23.44-.35.91-.76,1.41-1.23Z"/>
            <path id="path2644" class="cls-5" d="m263.12,509.64c-.19.12-.39.26-.61.43l-2.59,2.56c-.27.27-.53.52-.78.76.25-.24.51-.49.79-.76l2.59-2.56c.22-.17.43-.31.61-.43Z"/>
            <path id="path2642" class="cls-5" d="m278.17,508.24l-3.1,1.57c-.85.43-1.52.75-2.15.96l-1.42.73-2.05-.6c-.88-.17-1.93-.44-3.35-.84l-2.47-.7c-.15.07-.32.16-.51.27.19-.12.36-.21.51-.27l2.47.7c1.41.4,2.46.67,3.35.84l2.05.6,1.42-.73c.63-.21,1.3-.53,2.15-.96l3.1-1.57h0Z"/>
            <path id="path2640" class="cls-5" d="m320.08,507.73c-.24.22-.52.41-.86.57.33-.16.62-.35.86-.57Z"/>
            <path id="path2638" class="cls-5" d="m143.51,507.97c.31.07.61.11.9.13-.29-.02-.59-.06-.9-.13Z"/>
            <path id="path2636" class="cls-5" d="m142.65,507.73c.3.1.59.18.86.24-.28-.06-.56-.14-.86-.24Z"/>
            <path id="path2634" class="cls-5" d="m161.78,508.49c.8.08,1.82.15,3.01.21-1.19-.06-2.21-.13-3.01-.21Z"/>
            <path id="path2632" class="cls-5" d="m157.27,507.66c.35.07.7.14,1.07.2.89.21,1.74.39,2.41.5.28.05.62.09,1.02.13-.4-.04-.74-.08-1.02-.13-.67-.11-1.52-.29-2.41-.5-.37-.06-.72-.13-1.07-.2Z"/>
            <path id="path2630" class="cls-5" d="m201.93,507.82c-2.58.17-5.14.36-7.08.52-1.15.09-2.47.18-3.92.25,1.45-.07,2.77-.15,3.92-.25,1.94-.16,4.51-.35,7.08-.52Z"/>
            <path id="path2628" class="cls-5" d="m216.21,506.99l-7.16.39c-1.97.11-4.55.27-7.13.44,2.58-.17,5.16-.33,7.13-.44l7.16-.39h0Z"/>
            <path id="path2626" class="cls-5" d="m139.8,506.4c.55.34,1.1.62,1.65.87-.55-.24-1.1-.53-1.65-.87Z"/>
            <path id="path2624" class="cls-5" d="m320.94,505.49c0,.08-.01.17-.01.26,0,.11,0,.23-.02.34.01-.11.02-.22.02-.34,0-.1,0-.18.01-.27Z"/>
            <path id="path2622" class="cls-5" d="m146.03,507.91c-.26.08-.52.14-.79.17.27-.03.53-.09.79-.17Z"/>
            <path id="path2620" class="cls-5" d="m147.86,506.82c-.59.53-1.19.89-1.83,1.09.64-.2,1.24-.57,1.83-1.09Z"/>
            <path id="path2618" class="cls-5" d="m149.45,505.24l-1.24,1.24c-.12.12-.24.23-.35.34.12-.11.24-.22.35-.33l1.24-1.24,3.89,1.27c.09.03.21.06.31.09,0,0,0,0,0,0-.1-.03-.21-.06-.31-.09l-3.89-1.27Z"/>
            <path id="path2616" class="cls-5" d="m389.2,505.31c.81.15,1.66.16,2.53.04-.88.12-1.72.11-2.53-.04Z"/>
            <path id="path2614" class="cls-5" d="m388.49,505.15c.21.06.42.11.64.15.02,0,.05,0,.07.01-.02,0-.05,0-.07-.01-.22-.04-.43-.09-.64-.15h0Z"/>
            <path id="path2612" class="cls-5" d="m321.16,505.08s-.07.06-.09.09c.03-.03.06-.06.09-.09Z"/>
            <path id="path2610" class="cls-5" d="m322.66,504.71c-.85.08-1.28.2-1.51.37.22-.17.66-.29,1.51-.37Z"/>
            <path id="path2608" class="cls-5" d="m324.98,504.58c-.5.02-.94.03-1.32.06.38-.02.82-.04,1.32-.05l4.93.13c2.62.07,5.55.07,8.69,0-3.13.07-6.07.07-8.69,0l-4.93-.13Z"/>
            <path id="path2606" class="cls-5" d="m394.47,504.58c-.47.2-.94.36-1.39.49.46-.13.92-.29,1.39-.49Z"/>
            <path id="path2604" class="cls-5" d="m351.71,504.21c-1.04.04-2.11.08-3.22.11-1.71.09-3.4.17-5.06.24,1.65-.06,3.35-.14,5.06-.24,1.11-.03,2.18-.07,3.22-.11Z"/>
            <path id="path2602" class="cls-5" d="m385.5,503.51c.56.47,1.15.86,1.75,1.15-.6-.3-1.19-.68-1.75-1.15Z"/>
            <path id="path2600" class="cls-5" d="m135.59,502.95c.29.29.57.57.86.84-.28-.27-.57-.55-.86-.84Z"/>
            <path id="path2598" class="cls-5" d="m367.35,502.9c-4.64.56-8.52.92-12.56,1.16,4.04-.24,7.92-.6,12.56-1.16Z"/>
            <path id="path2596" class="cls-5" d="m397.94,502.19c-.63.57-1.23,1.06-1.81,1.46.58-.4,1.19-.89,1.81-1.46Z"/>
            <path id="path2594" class="cls-5" d="m382.92,500.85l-1.12.14-6.8.92c-1.41.19-2.74.37-4.01.53,1.27-.16,2.6-.34,4.01-.53l6.8-.92,1.12-.14h0Z"/>
            <path id="path2592" class="cls-5" d="m403.13,496.37c-.41.54-.83,1.06-1.24,1.56-.34.42-.68.82-1.01,1.21.34-.39.68-.79,1.02-1.21.42-.5.83-1.02,1.24-1.56Z"/>
            <path id="path2590" class="cls-5" d="m425.38,435.74c-.38,2.43-.82,4.92-1.32,7.45.5-2.53.94-5.02,1.32-7.45Z"/>
            <path id="path2588" class="cls-5" d="m426.89,415.68c.05.35.09.63.12.73.07.24.09.92.05,1.91.04-.99.02-1.67-.05-1.91-.03-.1-.07-.38-.12-.73h0Z"/>
            <path id="path2586" class="cls-5" d="m126.8,411.07c.15.18.29.34.4.47,0,0,0,0,0,0-.12-.13-.26-.29-.41-.47h0Z"/>
            <path id="path2584" class="cls-5" d="m426.24,409.13c.1.56.2,1.15.28,1.77-.08-.61-.17-1.2-.28-1.77Z"/>
            <path id="path2582" class="cls-5" d="m124.66,408.16c.18.25.4.52.53.72.39.58.78,1.11,1.12,1.57-.35-.46-.73-.99-1.12-1.57-.13-.2-.35-.47-.53-.72Z"/>
            <path id="path2580" class="cls-5" d="m424.64,404.15c.23.42.44.88.63,1.38-.19-.5-.4-.96-.63-1.38Z"/>
            <path id="path2578" class="cls-5" d="m423.5,402.54c.28.29.54.63.79,1-.24-.38-.51-.71-.79-1Z"/>
            <path id="path2576" class="cls-5" d="m375.07,399.93c.13.17.26.32.39.45-.13-.13-.26-.28-.39-.45Z"/>
            <path id="path2574" class="cls-5" d="m116.97,399.55c.42.42.88.89,1.39,1.41.17.17.34.36.51.54.3.31.59.62.89.94,1.12,1.2,2.24,2.46,3.2,3.6-.96-1.14-2.08-2.4-3.2-3.6-.3-.32-.59-.64-.89-.94-.17-.18-.34-.37-.51-.54-.51-.52-.98-.99-1.4-1.41Z"/>
            <path id="path2572" class="cls-5" d="m420.76,398.82c.04.13.07.26.08.39,0-.13-.04-.26-.08-.39Z"/>
            <path id="path2570" class="cls-5" d="m145.24,386.85c.16.12.3.25.45.39-.14-.15-.29-.27-.45-.39Z"/>
            <path id="path2568" class="cls-5" d="m125.32,379.13c5.64,2.06,11.17,4.12,14.95,5.57-3.78-1.45-9.3-3.51-14.95-5.57Z"/>
            <path id="path2566" class="cls-5" d="m109.74,373.41c.84.35,1.84.74,3.03,1.19-1.19-.45-2.19-.84-3.03-1.19Z"/>
            <path id="path2564" class="cls-5" d="m107.7,372.46c.53.28,1.21.59,2.04.94-.84-.35-1.51-.66-2.04-.94Z"/>
            <path id="path2562" class="cls-5" d="m361.41,371.68c.67,1.66,1.37,3.33,2.11,5.03-.75-1.7-1.45-3.37-2.11-5.03Z"/>
            <path id="path2560" class="cls-5" d="m105.97,371.32c.06.05.13.11.21.17-.09-.06-.16-.12-.21-.17Z"/>
            <path id="path2558" class="cls-5" d="m353.49,331.89c-.09.13-.17.25-.24.37-.1.23-.19.46-.27.71.07-.25.17-.48.27-.71.07-.12.15-.24.24-.37Z"/>
            <path id="path2556" class="cls-5" d="m359.14,325.66c-.65.71-1.32,1.42-1.95,2.09-.56.59-1.05,1.11-1.49,1.57.43-.46.93-.98,1.49-1.57.63-.67,1.29-1.38,1.95-2.09Z"/>
            <path id="path2552" class="cls-5" d="m365.36,318.3c-.43.53-.97,1.23-1.53,1.95-.28.36-.67.85-1.15,1.41.48-.56.87-1.05,1.15-1.41.56-.73,1.1-1.42,1.53-1.95Z"/>
            <path id="path2550" class="cls-5" d="m366.68,316.79c-.19.22-.35.4-.49.52-.09.08-.4.45-.83.98.43-.53.74-.9.83-.98.14-.12.3-.3.49-.52Z"/>
            <path id="path2548" class="cls-5" d="m368.05,314.92c-.53.78-.99,1.42-1.37,1.87.37-.45.84-1.09,1.37-1.87Z"/>
            <path id="path2546" class="cls-5" d="m120.51,310.32c.77.13,1.37.25,1.76.38-.39-.13-.99-.26-1.76-.38Z"/>
            <path id="path2544" class="cls-5" d="m104.24,309.07c2.04.09,3.68.18,4.79.27-1.11-.09-2.75-.18-4.79-.27Z"/>
            <path id="path2542" class="cls-5" d="m88.51,308.56c6.02.15,11.66.33,15.73.51-4.07-.18-9.71-.36-15.73-.51Z"/>
            <path id="path2540" class="cls-5" d="m57.72,308.18c-.63.01-1.16.03-1.59.05-1.35.06-2.5.13-3.49.17.99-.05,2.14-.11,3.49-.17.43-.02.96-.04,1.59-.05h0Z"/>
            <path id="path2538" class="cls-5" d="m59.85,308.16c-.79,0-1.5.01-2.13.03.63-.01,1.34-.02,2.13-.02,3.09.04,6.43.08,10.06.1,3.24.02,6.37.06,9.43.1-3.06-.04-6.19-.08-9.43-.1-3.63-.02-6.97-.06-10.06-.1h0Z"/>
            <path id="path2536" class="cls-5" d="m46.44,307.55c.09.1.15.17.2.2.03.02.14.03.3.05.1.06.2.12.31.17-.11-.05-.21-.11-.31-.17-.15-.02-.27-.03-.3-.05-.05-.03-.12-.1-.2-.2Z"/>
            <path id="path2534" class="cls-5" d="m45.34,306.22c.27.37.53.68.8.94-.27-.26-.53-.57-.8-.94Z"/>
            <path id="path2532" class="cls-5" d="m373.78,305.38c-.32.57-.66,1.15-1,1.73-.68,1.2-1.36,2.38-2.02,3.49.66-1.11,1.34-2.28,2.02-3.49.34-.58.68-1.15,1-1.73Z"/>
            <path id="path2530" class="cls-5" d="m375.59,302c-.56,1.11-1.17,2.24-1.81,3.39.65-1.14,1.25-2.27,1.81-3.39Z"/>
            <path id="path2528" class="cls-5" d="m377.22,298.69c-.26.53-.53,1.08-.82,1.65-.26.55-.53,1.1-.81,1.65.28-.56.55-1.11.81-1.65.29-.57.56-1.12.82-1.65Z"/>
            <path id="path2526" class="cls-5" d="m378.53,295.83c-.35.83-.8,1.81-1.31,2.86.51-1.06.96-2.03,1.31-2.86Z"/>
            <path id="path2524" class="cls-5" d="m379.5,293.05c-.17.59-.35,1.14-.53,1.64-.12.34-.27.73-.45,1.14.18-.42.33-.8.45-1.14.18-.5.36-1.05.53-1.64Z"/>
            <path id="path2522" class="cls-5" d="m381.36,277.5c.02.5.04,1,.05,1.52.02.57.01,1.18-.01,1.81.02-.64.03-1.25.01-1.81-.01-.52-.03-1.02-.05-1.52h0Z"/>
            <path id="path2520" class="cls-5" d="m381,273.11c.11.93.2,1.87.27,2.82-.07-.95-.15-1.88-.27-2.82Z"/>
            <path id="path2512" class="cls-5" d="m379.06,263.78c.3,1.07.57,2.1.8,3.07-.23-.97-.5-2-.8-3.07Z"/>
            <path id="path2504" class="cls-2" d="m156.12,237.93c-.09.39-.18.69-.29.89.1-.2.2-.49.29-.89Z"/>
            <path id="path2500" class="cls-5" d="m8.49,230.14c1.58,4,3.27,8.14,5.04,12.34-1.77-4.19-3.46-8.33-5.04-12.34Z"/>
            <path id="path2492" class="cls-2" d="m363.47,210.07c.29,1.29.58,2.65.89,4.1.41,1.94.79,3.72,1.16,5.38-.36-1.66-.75-3.44-1.15-5.38-.31-1.45-.6-2.81-.89-4.1Z"/>
            <path id="path2486" class="cls-5" d="m132.15,187.75c3.72,1.49,7.41,2.94,10.8,4.24-3.39-1.3-7.08-2.75-10.8-4.24Z"/>
            <path id="path2484" class="cls-2" d="m353.37,179.5c.03.55.07,1.04.11,1.46l2.85,6.75-2.85-6.75c-.04-.43-.08-.91-.11-1.46Z"/>
            <path id="path2482" class="cls-5" d="m353.08,163.31c.11,3.31.17,6.51.17,9.42,0-2.9-.06-6.11-.17-9.42Z"/>
            <path id="path2480" class="cls-5" d="m298.56,146.19c.12.5.24.96.36,1.35,0,.03.01.06.02.08,0-.03-.01-.05-.02-.08-.12-.4-.24-.85-.36-1.35h0Z"/>
            <path id="path2478" class="cls-5" d="m37.9,138c1.21.89,2.57,1.86,4.04,2.89-1.47-1.04-2.82-2.01-4.04-2.89Z"/>
            <path id="path2476" class="cls-5" d="m343.87,93.29c.61,2.51,1.18,4.94,1.72,7.33-.54-2.39-1.11-4.82-1.72-7.33Z"/>
            <path id="path2474" class="cls-5" d="m296.3,131.93c.76,6.29,1.53,11.23,2.26,14.26-.73-3.03-1.51-7.97-2.26-14.26Z"/>
            <path id="path2472" class="cls-5" d="m294.47,113.73c.58,6.78,1.2,12.96,1.83,18.2-.63-5.24-1.25-11.42-1.83-18.2Z"/>
            <path id="path2470" class="cls-5" d="m292.43,83.59c.12,2.21.24,4.41.36,6.6.08,1.59.16,3.06.25,4.36.04.62.09,1.27.14,1.89.39,6.04.83,11.85,1.29,17.28-.46-5.43-.9-11.24-1.29-17.28-.04-.63-.1-1.27-.14-1.89-.09-1.31-.17-2.77-.25-4.36-.13-2.18-.25-4.38-.37-6.6Z"/>
            <path id="path2468" class="cls-5" d="m340.55,80.99c.52,1.77,1.02,3.54,1.5,5.31-.48-1.77-.98-3.54-1.5-5.31Z"/>
            <path id="path2466" class="cls-5" d="m338.89,75.57c.57,1.8,1.12,3.61,1.66,5.42-.53-1.81-1.09-3.61-1.66-5.42Z"/>
            <path id="path2464" class="cls-5" d="m334.49,62.68c1.01,2.75,1.99,5.53,2.92,8.32-.94-2.79-1.91-5.57-2.92-8.32Z"/>
            <path id="path2460" class="cls-5" d="m327.38,45.18c1.25,2.81,2.48,5.69,3.66,8.61-1.19-2.92-2.41-5.8-3.66-8.61Z"/>
            <path id="path2458" class="cls-5" d="m324.84,39.64c.86,1.82,1.71,3.66,2.55,5.54-.84-1.88-1.69-3.72-2.55-5.54Z"/>
            <path id="path2456" class="cls-5" d="m322.22,34.29c.88,1.75,1.76,3.53,2.62,5.35-.86-1.82-1.73-3.6-2.62-5.35Z"/>
            <path id="path2454" class="cls-5" d="m314.06,19.63c.92,1.5,1.84,3.04,2.76,4.63-.91-1.59-1.83-3.13-2.76-4.63Z"/>
            <path id="path2452" class="cls-5" d="m309.88,13.24c1.4,2.01,2.8,4.15,4.18,6.39-1.39-2.24-2.78-4.38-4.18-6.39Z"/>
            <path id="path2450" class="cls-5" d="m304.59,6.26c.35.42.71.86,1.09,1.33.47.58.93,1.18,1.4,1.8-.47-.61-.93-1.21-1.4-1.8-.37-.47-.73-.91-1.09-1.33Z"/>
            <path id="path2448" class="cls-5" d="m301.68,3.06c.89.87,1.86,1.93,2.92,3.19-1.06-1.26-2.03-2.32-2.92-3.19Z"/>
            <path id="path2446" class="cls-5" d="m291.69,57.7c.09,8.04.23,15.19.41,19.22.1,2.23.21,4.46.32,6.67-.12-2.21-.22-4.44-.32-6.67-.18-4.03-.32-11.18-.41-19.22Z"/>
            <path id="path2444" class="cls-5" d="m291.64,21.91c-.05,3.12-.07,7.09-.08,11.47-.05,5.01-.03,10.41.05,16.06.02,2.8.05,5.57.08,8.25-.03-2.68-.06-5.46-.08-8.25-.08-5.65-.1-11.05-.05-16.06,0-4.38.03-8.34.08-11.47Z"/>
            <path id="path2442" class="cls-5" d="m291.78,16.49c-.06,1.22-.1,3.08-.14,5.43.03-2.34.08-4.21.14-5.43Z"/>
            <path id="path2389" class="cls-5" d="m295.13.74c-1.32,1.19-2.02,3.33-2.69,8.9,0,.05-.01.1-.02.15-.19,1.61-.38,3.46-.58,5.7-.02.25-.04.58-.06.99.02-.41.04-.74.06-.99.2-2.24.39-4.09.58-5.7,0-.06.01-.1.02-.15.67-5.57,1.37-7.71,2.69-8.9,0,0,0,0,0,0h0Z"/>
            <g id="g2739">
              <path id="path2462" class="cls-5" d="m296.24,49.87v4.47c0,1.06.03,2.38.05,3.81l.09,3.42c.42,14.7,1.73,39.81,2.48,45.62.13.97.4,4.01.61,6.76.5,6.56,3,26.05,3.81,29.65.96,4.29,1.4,4.77,5.72,6.15,3.86,1.24,6.93,2.73,8.57,3.96.52.35.87.66.96.9.62.78.39,1.36-.94,1.55-.7.1-2.69-.24-4.41-.76-4.98-1.5-19.78-4.35-25.2-4.84-.88-.08-1.82-.15-2.78-.21-3.62-.16-7.8-.19-13.35-.19-3.5,0-6.6.05-9.55.13-6.76.29-13.38.82-18.66,1.57-16.45,2.32-21.72,3.44-33.8,7.17-2.9.9-4.89,1.49-6.2,1.98-.36.14-.68.28-.97.41-1.91.93-.97,1.64,1.15,3.88.12.12.21.23.32.35.63.62,1.19,1.25,1.67,1.88,1.73,2.08,2.36,3.39,1.96,4.04-.69,1.12-2.19.55-5.19-1.98-8.93-7.52-33.46-20.69-52.7-28.31-23.92-9.47-48.61-16.33-74.06-20.59-6.84-1.14-6.93-1.48-7.27,2.92-.05,1.59-.08,3.45-.08,5.53s.02,3.86.06,5.28c.65,6.28,2.51,12.14,5.5,17.17l1.19,2.01c.74,1.04,1.44,1.81,2.02,2.18.39.25,1.36.77,2.58,1.41l12.65,6.31c8.88,4.43,16.29,8.05,16.46,8.05s2.37.96,4.9,2.14c17.26,8.02,50.58,20.24,59.74,21.9,3.67.67,4.39.93,4.5,2.02,0,.04.02.08.02.12,0,.03,0,.07-.01.1,0,.07.01.13.01.2,0,.76-.44,1.17-1.32,1.23-.48.03-1.17.04-1.94.03-.76.03-1.65,0-2.66-.08-1.51-.07-2.92-.19-3.7-.31-.38-.02-.69-.03-.95-.03-1.11.56-2.15,4.27-3.76,13.1-1.38,7.54-2.26,16.47-2.57,24.89-.03,4.91.1,10.84.38,18.12.05.48.1.97.15,1.43.24,1.97.73,10.08,1.08,18.02,1.02,23.04,2.31,31.75,6.16,41.62,1.64,4.2,3.57,8.03,5.84,11.55,2.14,3.28,4.61,6.32,7.41,9.13,2.1,2.11,4.46,4.15,6.96,6.05,3.39,2.51,7.17,4.82,11.39,6.98,2.53,1.29,6.12,2.82,7.97,3.39,1.75.54,2.89,1.11,3.35,1.65.21.23.32.47.32.75,0,.1-.02.19-.04.28-.1,1.47-2.17,1.47-7.6.13-9.47-2.34-22.67-11.31-29.75-20.23l-2.35-2.96c-.23-.16-.43-.22-.59-.14l-.34,2.22c-.23,1.5-.69,5.11-1.02,8.02-1.22,10.69-9.26,39.29-14.94,53.15-.63,1.53-1.16,2.95-1.41,3.7-.06.23-.09.43-.11.59.14.27,1.19.73,2.47,1.06,4.72,1.24,11.06,4.7,13.72,7.48,2.64,2.76,3.22,4.34,2.1,4.51-.66.29-1.88-.06-3.16-.98-.59-.3-1.24-.66-1.96-1.09-3.75-2.28-5.95-3.39-8.62-4.21-.16-.05-.32-.09-.49-.14-.81-.23-1.66-.45-2.63-.66-8.29-1.82-15.39-.62-20.24,3.29-.39.35-.8.74-1.25,1.18-.36.35-.69.7-1.02,1.05-.34.4-.66.83-.97,1.27-1,1.45-1.41,2.08-1.38,2.67.1.31.25.69.45,1.11.06.09.1.18.17.28,2.42,3.87,5.15,9.61,6.78,14.23,2.4,6.81,2.63,9.37.81,9.37-.74,0-1.6-1.14-2.79-3.67-2.91-6.22-6.89-13.64-10.29-19.47-2.95-4.95-5.64-9.04-6.56-9.76-.16-.1-.27-.08-.31.08-.14.68,1.38,6.96,3.2,13.36.5,1.46.74,2.47.73,3.14.01.54-.14.87-.46,1.18-.61.6-1.12.32-2.62-1.41-3.07-3.54-6.27-13.84-6.27-20.15,0-1.09-.15-1.97-.44-2.59-.12-.24-.24-.43-.37-.56-.25-.25-.43-.41-.57-.45-.09.04-.18.11-.26.21-.08.25-.1.82-.11,1.6.03.63.09,1.43.17,2.49.38,5.01,1.36,9.55,3.43,15.9.66,2.03,1.05,4.08.87,4.56-.91,2.38-4.02-.58-6.17-5.9-1.12-2.76-1.19-2.83-1.22-1.09-.09,5.16,3.02,19.47,7.4,34,7.12,23.64,18.82,45.23,26.79,49.43.93.49,1.34.66,1.75.37.12-.12.27-.27.42-.44.14-.18.29-.4.48-.68.9-1.37,1.07-3.28,1.24-13.48.14-8.91.38-11.95.93-12.17,1.96-.75,3.3,2.41,3.86,8.76.43,3.15.64,6.85.5,10.53l-.18,4.93.23.14,1.81.76c4.48,1.89,6.2,2.29,15.4,2.38,2.1.01,4.14.02,7.23.02,12.38-.02,25.05-.54,28.53-1.18.5-.09,3.86-.36,7.46-.59,5.34-.35,6.6-.6,6.79-1.38.26-1.1-.2-1.94-7.51-13.88-19.35-31.6-31.69-57.78-36.01-76.41-.72-3.1-1.2-6.16-1.43-8.77-.22-1.77-.35-3.3-.37-4.48-.08-1.12-.04-1.74.15-2.03.07-.28.17-.48.29-.55.18-.11.39-.15.6-.13.05-.03.11-.06.17-.07.64-.13,1.06.25,1.33,1.21.19.33.31.7.31,1.08,0,.05.02.17.04.28,1.88,7.52,7.07,24.35,9.17,29.64,2.06,5.16,6.04,14.36,8.4,19.51.64,1.31,1.28,2.62,1.96,3.96.41.68,1.66,3,3.02,5.63,1.5,2.91,3.21,6.08,3.79,7.05.58.97,1.93,3.35,3,5.29,1.07,1.94,2.4,4.19,2.95,5,.55.81,1.67,2.66,2.49,4.11.81,1.45,4.03,6.78,7.14,11.83,3.03,4.92,4.86,8.28,5.44,9.96.13.32.22.58.22.7,0,.03,0,.07-.01.1,0,.04.01.08.01.11,0,.93-.78,3.35-1.74,5.37-.82,1.72-1.36,3.17-1.37,3.55.25-.03.77-.21,1.41-.49.48-.25,1.03-.54,1.61-.87,2.06-1.18,3.43-1.64,4.46-1.35.7.13,1.2.62,1.69,1.49.09.15.18.3.26.47l.27.53c.28.52.49.9.64,1.15.21.06.44.03.71-.09l1.86-1.6c.49-.42,1-.79,1.48-1.12.02-.01.04-.03.06-.04.28-.19.55-.37.79-.51.35-.24.64-.41.76-.41.02,0,.06.02.1.03.06-.01.12-.03.16-.03.26,0,.66.25,1.09.65.49.35.95.93,1.43,1.74.11.18.22.35.33.51.53.69,1.03,1.18,1.25,1.2.18-.03.65-.28,1.31-.68.66-.42,1.5-1.01,2.36-1.66,1.47-1.11,3.09-2.04,3.93-2.28.05-.02.09-.03.13-.04.03,0,.06-.03.08-.03h0s.01,0,.01,0c0,0,.02,0,.03,0,0,0,.03,0,.04.01.02,0,.05-.01.07-.01.73,0,1.86,1,3,2.65,1.53,2.23,2.17,2.8,3.82,1.4.17-.16.35-.33.55-.51.54-.52,1.14-1.16,1.92-2.01,1.36-1.5,2.44-2.34,3.64-2.61.12-.05.22-.09.29-.09.03,0,.09.02.12.02,1.1-.13,2.32.18,3.97.86.67.28,1.29.52,1.75.68.28.03.52.04.66-.02-.12-.37-.52-1.2-1.07-2.22-.5-.66-.88-1.31-1.18-2.06l-.66-1v-.24s-.59-1.03-.59-1.03l-.15-11.76c-.2-16.06-2.13-36.45-5.6-59.38-1.19-7.18-2.52-14.32-3.98-21.28-.5-2.21-1.07-4.66-1.77-7.66-.58-2.47-1.01-4.43-1.34-6.02-.47-1.92-.74-3.19-.8-3.94,0,0,0,0,0,0,0,0,0,0,0,0-.15-.67-.1-1.05.17-1.22.02-.08.05-.14.09-.18.74-.74,1.43-.4,2.53,1.52.5.77,1.02,1.81,1.56,3.11,0,0,0,.02.01.03,2.26,4.89,4.09,11.57,6.07,22.18.72,3.88,1.52,7.28,1.77,7.56.25.28.63-.78.84-2.35.48-3.58,4.15-15.63,5.68-18.62.68-1.33,1.32-2.01,1.92-2.05.46-.25.87-.09,1.21.47.04.06.01.37-.03.78,0,.25-.03.57-.07.92-.08,1.6-.6,4.32-1.61,8.89-5.8,26.18-5.96,27.56-4.48,39.17,1.57,12.3,2.96,31.58,2.97,40.9,0,6.94.12,7.72,1.59,10.73,1.07,2.18,1.67,3.11,2.43,3.14.29-.09.69-.25,1.14-.44.14-.1.29-.19.45-.31.76-.57,1.43-.87,2.1-.87l.62-.3.05-.03h0s0,0,0,0l.64.71c.82.48,1.72,1.39,2.83,2.82.72.92,1.42,1.74,1.96,2.33.5.45.88.71,1.17.78.17-.26.29-.91.29-1.68,0-2.36.96-4.08,2.28-4.08.58,0,2.89,1.18,5.12,2.63s4.21,2.64,4.38,2.64c.18,0,.31-1.38.29-3.07,0-.11,0-.19,0-.3-.02-.33,0-.63.01-.92.05-1.39.25-1.82.88-1.98.19-.12.41-.18.66-.18.05,0,.13.05.23.13.61.13,1.08.67,1.64,1.84.63,1.32,1.62,2.26,2.82,2.68.75.26,1.44.43,1.82.45.02,0,.05,0,.06,0,.12-.08.18-.21.18-.41-.13-.49-.49-1.37-.99-2.35-1.15-2.26-1.19-2.57-.34-3.41.85-.85,1.13-.73,3.2,1.29,1.2,1.18,1.92,1.74,2.73,1.96h0c.11.03.23.05.35.06.06,0,.12.02.18.03,0,0,0,0,0,0,.33.03.7.02,1.13-.02l2.1-.19-.06-.1-.73-.95-1.49-1.8c-.76-.92-1.44-1.93-1.87-2.73-.06-.1-.11-.2-.15-.3-.21-.43-.34-.79-.34-1.01,0-.02.01-.07.02-.09,0-.03-.02-.07-.02-.09,0-.56.63-2.08,1.84-4.48,1.44-3.17,3.32-6.91,4.04-7.84,2.37-3.03,14.15-26.42,17.62-34.97,8.67-21.35,12.21-37.87,14.38-67.01.32-4.27.56-7.14.8-9.15.13-1.44.26-2.36.47-2.75.41-1.4.94-1.15,1.86-.24,1.45,1.45,1.69,15.46.46,26.85-2.53,23.45-7.59,42.01-18.19,64.51-1.4,3.13-2.63,5.73-3.3,6.89-.11.19-.38.68-.55,1-2.31,4.56-4.83,9.29-7.6,14.29-3.14,5.66-5.78,10.62-6.38,11.99-.04.1-.04.12-.06.18-.03.1-.04.16-.05.23.04.35.42,1.08.88,1.69.68.9,4.08,1.47,9.17,1.74,2.39.03,5.44.05,9.58.05,2.81,0,5.6-.03,8.3-.08,8.62-.33,18.34-1.05,27.77-2.13,3.21-.39,5.99-.75,7.62-1,1.71-.34,2.24-.8,2.46-2.1,0-.08.01-.15.01-.23,0-.41.06-.79.16-1.14.14-1.08.4-1.43,1.11-1.52.33-.16.7-.16,1.05.03.72.15,1.07.67,1.43,2,.78,2.85,3,6.09,4.56,6.81.11.04.22.08.33.11.03,0,.07.02.1.03,0,0,0,0,0,0,2.09.3,5.34-2.25,8.98-7.01,11.41-14.96,20.82-44.01,22.46-68.9.03-.71.06-1.4.08-2.16l.22-7.45c0-.14-.01-.22-.02-.34-.03-.17-.07-.33-.09-.46l-.72,3.92c-.48,3.8-1.32,7.37-2.25,9.96-.4,1.2-.8,2.09-1.21,2.7-.52.87-1.04,1.37-1.51,1.37-.21,0-.36-.09-.48-.29-.35,0-.54-.12-.58-.85-.07-.64,0-1.74.18-3.72.13-1.45.26-2.84.38-4.02.14-2,.33-4.02.52-5.42.67-5.02.76-15.64.15-15.96-.22,0-.49.16-.78.47-.67.95-1.13,3.32-1.4,7.18-.5,7.02-1.84,13.85-3.32,17.92-.12.35-.25.68-.38.98,0,0,0,0,0,.01-.72,1.75-1.49,2.8-2.19,2.8,0,0,0,0,0,0-.56,0-.91-.15-1.09-.66-.34-.86-.17-2.71.43-6.46.49-3.04,1.04-8.04,1.22-11.11l.31-5.11c-.14.11-.3.29-.48.54l-1.86,3.69c-5.75,11.43-12.07,29.14-15.84,44.38-1.84,7.43-2.26,8.52-3.29,8.52-.01,0-.02,0-.03,0,0,0-.02,0-.02,0-.26,0-.46-.05-.62-.15-.04-.03-.08-.06-.12-.1-.17-.18-.29-.48-.38-.96-.28-.85-.33-2.21-.21-3.94.13-6.43,2.73-16.34,7.97-30.38l2.34-6.27c.12-.83-.38-1.53-2.15-3.47l-4.1-3.92c-7.46-7.13-12.96-10.37-18.78-10.73-.37,0-.76-.02-1.19-.02-.54,0-1.1.02-1.66.06-.72.07-1.45.16-2.19.3-3.96.76-9.4,2.96-11.08,4.49-.93.84-1.12.92-1.72.14-.22-.09-.35-.28-.39-.54-.59-.91-.26-1.37,2.41-3.93.1-.1.21-.19.31-.28.02-.02.04-.04.07-.06.02-.02.05-.04.07-.06,2.94-2.68,5.85-3.99,10.74-4.81,1.21-.2,2.2-.64,2.2-.96s-1.94-4.35-4.31-8.94c-9.27-17.96-14.1-32.18-15.72-46.26-.39-3.39-.87-6.35-1.07-6.58-.2-.22-2.61,1.45-5.36,3.73-2.75,2.27-6.06,4.84-7.36,5.7-1.3.86-3.34,2.31-4.54,3.24-3.54,2.72-12.96,7.7-17.47,9.23-3.5,1.19-4.27,1.29-4.7.6-.11-.17-.17-.37-.21-.57-.15-.24-.22-.48-.13-.62.01-.02.06-.06.1-.09.07-.61.39-1.12.85-1.12.6,0,11.14-6.27,16.12-9.59,8.21-5.47,18.11-13.55,25.14-20.38,2.08-2.12,4.14-4.31,6.04-6.41,2.96-3.48,6.74-8.33,8.94-11.41.57-.85,1.12-1.68,1.63-2.47.06-.11.11-.22.14-.29.17-.49.79-1.58,1.38-2.42l.93-1.35c.03-.07.07-.14.09-.19l-2.86-.34c-4.2-.5-9.11-3.12-12.15-6.51-4.1-4.56-6.04-10.05-6.09-17.15,0-.15,0-.29,0-.44,0-.03,0-.07,0-.1,0-.12,0-.23,0-.34,0-.19,0-.39.01-.58.16-5.57,1.46-9.84,4.02-13.23.49-.69,1.02-1.33,1.6-1.95.01-.01.02-.03.04-.04.05-.05.1-.11.15-.16,3.78-4.12,7.96-5.91,13.73-6,1.72-.03,3.13-.19,3.34-.38.02-.03.02-.07.03-.1-.04-.3-.7-2.2-1.51-4.35-4.1-10.81-7.09-20.99-9.05-30.78-1.67-8.32-3.83-16.94-5.68-22.63-2.01-6.17-6.7-16.13-9.3-19.75-1.14-1.59-2.07-3.02-2.07-3.18s-1.45-2.19-3.23-4.51c-2.12-2.76-3.14-4.48-3.16-5.43-.1-.62.18-.93.83-.93.03,0,.07,0,.1,0,.03,0,.05,0,.07,0,.01,0,.04,0,.06.01.09,0,.18-.01.29-.01,1.02,0,2.61,1.29,5.61,4.55l4.19,4.55-.08-7.17-.15-5.45c-.04-1.59-.11-3.17-.18-4.76-.8-14.76-3.01-33.68-5.59-47-.14-.73-.29-1.46-.44-2.19-1.71-8.2-5.87-23.75-8.82-32.86-3.18-9.84-3.21-9.88-10.13-14.56-7.82-5.29-14.36-7.7-22.72-8.36l-2.12-.17h-2.15Zm36.4,154.93h0c7.22.09,14.1,4.46,17.58,11.93,2.17,4.67,2.15,11.83-.05,16.53-1.86,3.98-5.67,7.75-9.55,9.46-3.62,1.6-9.75,2.04-12.74.92-6.11-2.29-10.2-5.98-12.75-11.53-2.02-4.4-2.1-11.27-.19-15.56,2.06-4.62,4.98-7.71,9.25-9.81,2.74-1.35,5.62-1.97,8.44-1.94h0Zm-325.29,1.59c-.97.02-1.55.09-1.63.22-.3.52,1.8,6.47,7.02,19.88,3.17,8.14,5.12,12.77,11.64,27.63,4.75,10.82,15.16,31.94,18.26,37.04,1.44,2.37,2.62,4.47,2.62,4.66,0,.03.06.15.11.25.67,1.14,1.23,2.06,1.67,2.76.14.21.26.41.41.62l1.05,1.59.96,1.42,4.96.06,3.75-.18c8.9-.42,40.08.45,58.73,1.63.69.04,1.08.08,1.7.12,6.88.35,8.76.55,9.44,1.25.13.09.23.19.3.3.48.76-.09,3.32-2.4,10.87-5.93,19.37-12.74,43.17-14.23,49.54-.22,1.03-.28,1.57-.22,1.74.35.22,2.77,1.14,5.63,2.14,18.41,6.41,29.44,10.65,31.91,12.27.12.08.26.21.39.35l.76.36.48,1.53c.26.51.49,1.05.67,1.59.54,1.63,1.16,2.96,1.38,2.96s1.39-2.84,2.6-6.32c2.19-6.28,4.14-13.1,3.83-13.41-.09-.09-5.17-2.57-11.3-5.52-6.12-2.94-11.25-5.47-11.39-5.61-.77-.77,0-3.45,1.77-6.24,1.11-1.74,2.2-3.57,2.42-4.05.44-.98,4.34-6.58,11-15.79,2.42-3.35,4.8-6.66,5.28-7.36.48-.7,2.15-3.04,3.71-5.2l2.17-3.01c.37-.61.57-1,.59-1.17l-1.09-3.74c-2.36-8.09-4.08-19.83-4.16-28.39-.02-2.42-.3-9.04-.62-14.69-.32-5.66-.75-13.54-.97-17.52l-.36-6.73-.03-.51-3.34-1.69c-1.84-.93-6.63-3.05-10.64-4.72-32.22-13.39-61.88-21.78-96.34-27.26-11.16-1.77-30.31-3.58-37.4-3.69-.41,0-.78,0-1.1,0h0Zm209.4,4.81h0c.39,0,.79,0,1.18.01,3.38.05,4.75.36,7.32,1.57,2.84,1.33,5.42,3.48,7.43,6.11.73.92,1.32,1.82,1.79,2.77.18.33.35.66.51,1,1.29,2.72,1.53,4.02,1.51,8.23-.02,4.28-.27,5.49-1.71,8.44-1.94,3.95-5.69,7.55-9.96,9.57-4.19,1.98-11.68,1.98-15.87,0-5.18-2.44-8.95-6.71-10.73-11.61-.21-.52-.36-.99-.47-1.47-.89-3.22-.94-6.64,0-9.97,1.75-6.12,5.24-10.31,10.9-13.07,2.67-1.3,3.96-1.56,7.95-1.57.05,0,.1,0,.15,0h0Zm73.67,24.58h0c2.22.08,3.47.74,3.47,1.92,0,1.42-1.64,4.21-3.07,5.2-.5.35-.94.58-1.38.71-.07.02-.13.04-.2.06-.05,0-.09.02-.14.03-.09.01-.18.02-.27.02-.79.04-1.65-.24-2.94-.88-1-.5-2.27-1.66-2.81-2.59-.61-1.03-.81-1.45-.6-1.91,0-.03,0-.06.02-.08.11-.28.35-.55.7-.79,0,0,.01-.01.02-.02.73-.73,2.39-1.28,4.67-1.54.95-.11,1.79-.15,2.53-.13h0Zm-.61,15.57h0c.67,0,1.3.09,1.96.24,1.29.29,6.73,2.55,12.08,5.01,5.61,2.59,9.01,4.01,11.66,4.54,1.52.18,3.04.18,4.47,0,1.04-.22,2.12-.59,3.37-1.09,4.48-1.79,4.4-1.78,4.82-.69.47,1.23-1.71,3.71-4.52,5.13-1.6.81-2.37,1.22-2.82,2.06-.22.61-.42,1.39-.58,2.4-.06.45-.12.95-.18,1.55-.54,4.98-2.25,12.08-5.32,22.12-4.84,15.81-11.38,28.96-17.9,36-6.49,7.01-12.74,8.99-19.79,6.27-.64-.24-1.27-.55-1.9-.88-.62-.29-1.17-.61-1.76-1.04-12.34-8.13-23.76-32.56-27.14-59.16-.28-2.18-.56-3.64-.91-4.54-.01-.04-.03-.06-.04-.1-.06-.14-.11-.27-.17-.39-.01-.02-.02-.04-.04-.06-.14-.24-.29-.41-.44-.51-.4-.24-1.33-.99-2.32-1.84h0c-.33-.28-.66-.58-.98-.87-1.63-1.48-2.18-2.35-1.95-3.08,0-.02,0-.04.01-.06,0,0,0,0,0-.01,0,0,0,0,0,0,.02-.09.05-.16.1-.23.15-.35.31-.55.8-.51.24,0,.56.08.98.21,0,0,0,0,0,0,.08.03.17.06.26.09.91.29,2.23.78,4.29,1.56,2.95,1.12,5.11,1.51,8.27,1.51,5.17,0,7.67-.94,20.79-7.77.4-.21.73-.37,1.11-.57.52-.27,1.03-.54,1.53-.79,6.55-3.33,9.67-4.53,12.24-4.51h0Zm-98.9,14.46c4.22,0,8.5,1.35,12.22,3.7,2.56,1.5,4.73,3.49,6.46,5.94.95,1.27,1.78,2.63,2.45,4.08.84,1.83,1.24,2.98,1.42,4.9.63,3,.64,6.03.12,8.94-.12,2.68-.54,3.69-1.91,6.43-3.77,7.52-10.53,12.02-19.47,12.98-1.45.16-3.84.05-5.29-.24-2.79-.55-5.31-1.45-7.56-2.67-.82-.37-1.47-.7-1.72-.9-.3-.24-.61-.5-.92-.77-3.03-2.23-5.42-5.17-7.1-8.76-.02-.04-.05-.09-.07-.13-.65-1.34-1.04-2.3-1.29-3.39-.31-.98-.57-2-.79-3.06-.56-2.75-.57-4.36-.06-6.92,2.14-10.65,9.19-17.66,19.89-19.77,1.19-.23,2.41-.35,3.63-.35h0Z"/>
              <path id="path2510" class="cls-6" d="m368.97,260.15c-2.14-.02-4.64.41-6.61,1.27-3.42,1.5-6.51,4.89-7.96,8.74-1.59,4.21-1.45,10.98.19,15.71.32.85.68,1.65,1.07,2.42,1.7,3.1,4.62,6.14,7.29,7.52,2.07,1.07,6.67,1.2,8.77.25,2.74-1.25,5.41-12.54,4.79-20.25-.52-6.45-2.32-13.8-3.63-14.75-.81-.59-2.25-.89-3.92-.91Zm-177.93,10.07c-.98,0-1.96.09-2.92.28-8.61,1.69-14.29,7.34-16.01,15.91-.41,2.07-.4,3.36.05,5.57.17.85.39,1.67.63,2.47.2.88.51,1.65,1.04,2.73.02.03.04.07.06.11,1.35,2.89,3.28,5.26,5.72,7.05.25.22.5.43.74.62.21.16.73.43,1.39.73,1.81.98,3.85,1.71,6.09,2.15,1.17.23,3.09.32,4.26.19,7.19-.77,12.64-4.4,15.67-10.45,1.11-2.21,1.44-3.02,1.54-5.18.42-2.34.41-4.78-.09-7.2-.15-1.55-.47-2.47-1.15-3.94-.54-1.17-1.2-2.27-1.97-3.29-1.39-1.97-3.14-3.57-5.2-4.78-2.99-1.9-6.44-2.98-9.83-2.98h0Z"/>
              <path id="path2498" class="cls-4" d="m329.27,210.33c-3.35,0-6.57,3.29-6.58,6.73,0,.04,0,.07,0,.1.02,1.37.71,3.06,1.67,4.35.03.03.05.06.08.1.17.17.33.35.53.55.37.37.73.69,1.09.97,1.93,1.09,5.32.89,7.25-.48,2.4-1.71,3.28-4.96,2.11-7.77-.98-2.34-3.95-4.53-6.15-4.54h0Zm-111.62,5.9c-.18,0-.36.01-.53.03-4.85.5-7.47,5.33-5.28,9.76.58,1.05,1.41,2,2.36,2.73,2.33,1.52,5.51,1.38,7.93-.65,1.65-1.37,2.01-2.13,2.26-4.69.04-.41.07-.76.09-1.08-.09-1.03-.31-1.93-.65-2.7-.29-.38-.68-.79-1.22-1.33-.84-.84-1.45-1.35-2.11-1.66-.83-.27-1.77-.4-2.84-.39h0Z"/>
              <path id="path2720" class="cls-3" d="m282.08,280.83c-9.74.09-18.35,5.81-26.38,14.41,4.8,15.6,11.85,28.15,19.26,33.55.53.43,1.03.75,1.59,1.04.57.33,1.15.64,1.73.88,6.4,2.71,12.06.73,17.94-6.27,5.05-6.02,10.11-16.5,14.21-29.28-10.55-10.23-19.88-14.4-28.36-14.32Z"/>
            </g>
          </g>
        </g>
      </g>
    </g>
  </g>
</svg>